<svg xmlns="http://www.w3.org/2000/svg" width="705.241" height="835.5" viewBox="0 0 705.241 835.5">
  <path id="Subtraction_1" data-name="Subtraction 1" d="M689.351,1753c-19.118,0-38.4-.965-57.312-2.868-18.641-1.876-37.376-4.709-55.686-8.421-18.076-3.665-36.173-8.274-53.786-13.7-17.419-5.365-34.785-11.657-51.614-18.7-16.672-6.979-33.215-14.861-49.168-23.429-15.837-8.506-31.465-17.887-46.449-27.882-14.909-9.945-29.53-20.732-43.456-32.06-13.888-11.3-27.41-23.4-40.191-35.963s-25.107-25.882-36.652-39.591c-11.568-13.737-22.617-28.186-32.839-42.944-10.268-14.824-19.942-30.308-28.754-46.023-8.871-15.82-17.079-32.247-24.4-48.826-7.381-16.725-14.03-34-19.763-51.354-5.795-17.537-10.794-35.573-14.858-53.607-4.115-18.26-7.371-36.962-9.679-55.586-2.34-18.888-3.763-38.162-4.227-57.289C110.093,1119.783,87.246,1010.821,37.64,917.5H730.85v833h12.03C725.2,1752.16,707.187,1753,689.351,1753Z" transform="translate(-37.64 -917.5)" fill="#9ced4c"/>
</svg>
